<svg height="512" viewBox="0 0 64 64" width="512" xmlns="http://www.w3.org/2000/svg"><g id="Up_Arrow" data-name="Up Arrow"><path d="m63.657 30.246-31-27a1 1 0 0 0 -1.314 0l-31 27a1 1 0 0 0 -.343.754v10a1 1 0 0 0 1.657.754l30.343-26.428 30.343 26.428a1 1 0 0 0 .657.246.987.987 0 0 0 .414-.09 1 1 0 0 0 .586-.91v-10a1 1 0 0 0 -.343-.754z"/><path d="m32.657 22.246a1 1 0 0 0 -1.314 0l-31 27a1 1 0 0 0 -.343.754v10a1 1 0 0 0 1.657.754l30.343-26.428 30.343 26.428a1 1 0 0 0 .657.246.987.987 0 0 0 .414-.09 1 1 0 0 0 .586-.91v-10a1 1 0 0 0 -.343-.754z"/></g></svg>